<?xml version="1.0" encoding="utf-8"?>
<!-- Generator: Adobe Illustrator 22.0.1, SVG Export Plug-In . SVG Version: 6.00 Build 0)  -->
<svg version="1.1" id="Layer_1" xmlns="http://www.w3.org/2000/svg" xmlns:xlink="http://www.w3.org/1999/xlink" x="0px" y="0px"
	 viewBox="0 0 512 512" style="enable-background:new 0 0 512 512;" xml:space="preserve">
<g>
	<path d="M275,41.3c70.8,27,121,95.5,121,175.7c0,103.8-84.2,188-188,188c-83.8,0-154.8-54.9-179.1-130.7
		C38.9,384.1,131.2,470,243.5,470c119,0,215.5-96.5,215.5-215.5C459,146.2,379.1,56.5,275,41.3z"/>
</g>
<circle cx="239" cy="192.3" r="42.5"/>
<path d="M216.1,307.6c-62-10.4-103.7-69.1-93.3-131.1c8.8-52.2,51.9-90.1,102.4-94.4c-72.1-9.3-139.2,40-151.4,112.3
	C61.4,268.4,111.3,338.5,185.3,351c74.1,12.5,144.2-37.4,156.7-111.5c0.5-3.1,0.9-6.1,1.2-9.2C326.2,283.3,272.5,317.1,216.1,307.6z
	"/>
</svg>
