<svg version="1.1" xmlns="http://www.w3.org/2000/svg" viewBox="0 0 871.6685664848565 374.6083959899749" width="871.6685664848565" height="374.6083959899749">
  <!-- svg-source:excalidraw -->

  <defs>
    <style>
      @font-face {
      font-family: "Virgil";
      src: url("https://excalidraw.com/Virgil.woff2");
      }
      @font-face {
      font-family: "Cascadia";
      src: url("https://excalidraw.com/Cascadia.woff2");
      }
    </style>
  </defs>
  <g stroke-linecap="round" transform="translate(478.64436659831415 10) rotate(0 173.49999999999997 109.50000000000003)"><path d="M-1.45 0.79 C137.37 -1.38, 276.12 -0.76, 344.39 -1.54 M-0.53 1.17 C94.57 -0.35, 189.06 -0.85, 347.13 -1.06 M348.52 2.88 C350.71 45.32, 349.34 86.24, 348.02 217.44 M346.42 -1.16 C346.82 84.49, 346.43 167.83, 348.2 219.93 M344.88 217.5 C212.18 214.24, 74.2 212.73, 2.52 221.47 M346.61 218.81 C237.88 217.09, 126.95 217.1, -0.91 219.76 M-3.04 218.53 C-0.3 153.8, -4.02 94.64, 1.78 1.61 M0.69 218.33 C3.66 171.17, 0.83 124.05, -1.67 1.09" stroke="#fff" stroke-width="2" fill="none"></path></g><g transform="translate(481.35019366598334 12.669172932330923) rotate(0 111 12.5)"><text x="0" y="18" font-family="Virgil, Segoe UI Emoji" font-size="20px" fill="#fff" text-anchor="start" style="white-space: pre;" direction="ltr">Authentication Synergy</text></g><g stroke-linecap="round" transform="translate(503.49305080884045 71.5263157894737) rotate(0 42 66.5)"><path d="M0 0 C0 0, 0 0, 0 0 M0 0 C0 0, 0 0, 0 0 M1.01 6.39 C0.35 4.09, 4.28 2.53, 4.57 1.94 M-0.73 6.03 C1.51 5.34, 2.01 3.57, 4.78 0.36 M-0.52 13.94 C-0.24 7.49, 4.92 6.3, 8.98 -2.33 M1.19 10.84 C1.35 8.06, 6.28 4.59, 9.17 0.44 M-1.65 19.18 C4.85 15.82, 5.69 7.98, 16.76 -2.35 M1.61 17.46 C7.95 11.76, 11.32 4.36, 16.56 -0.7 M1.09 25.47 C10.63 15.67, 13.95 8.44, 24.6 -2.63 M-0.65 25.78 C8.67 14.71, 16.49 6.9, 22.49 1.89 M1.44 34.25 C10.33 17.33, 18.04 14.12, 23.3 1.57 M1.08 30.04 C8.95 19.68, 20.49 7.69, 24.29 1.78 M-0.98 33.13 C7.26 25.78, 20.28 16.57, 28.67 3.17 M-2.25 38.62 C10.74 26.28, 19.16 13.26, 33.74 -1.4 M-2.59 42.36 C7.15 28.77, 13.98 22.2, 36.12 0.53 M0.76 44.16 C10.22 29.87, 21.03 20.07, 37.31 0.4 M2.46 48.87 C9.12 36.51, 17.02 23.73, 42.15 3.14 M1.87 49.89 C9.02 36.88, 21.62 24.74, 43.31 1.67 M3.12 52.7 C12.58 40.13, 25.32 30.07, 47.38 1.4 M-0.35 56.55 C17.26 30.61, 37.08 9.65, 46.47 1.55 M-1.57 60.81 C15.05 47.95, 24.77 30.46, 54.01 -3.66 M0.13 60.49 C14.67 46.21, 27.36 32.92, 55.11 -2.1 M2.4 69.55 C11.98 50.51, 30.32 34.59, 60.88 1.4 M-0.73 68.53 C19.66 45.49, 39.69 25.73, 59.77 1.45 M2.23 70.67 C13.39 54.24, 30.54 40.1, 60.88 0.18 M-1.18 72.37 C26.15 45.12, 48.2 18.41, 64.28 -2.09 M-3.33 81.33 C14.8 59.69, 33.63 40.37, 68.05 -3.85 M-1.7 78.96 C23.13 50.83, 52.73 20.43, 70.44 2.13 M0.78 86.57 C29.52 49.44, 59.34 19.77, 74.99 2.46 M1.39 85.32 C21.19 61.85, 44.76 34.59, 73.11 0.14 M1.01 89.09 C17.16 69.27, 38.16 40.02, 79.93 3.63 M0.63 92.77 C26.21 61.36, 53.97 32.18, 80.86 -0.59 M-0.02 99.74 C27.54 72.04, 50.13 36.58, 83.54 2.11 M-0.17 97.68 C25.65 69.44, 50.15 36.89, 82.43 -0.42 M-1.2 103.5 C32.03 69.42, 58.41 37.29, 81.96 6.24 M2.01 101.95 C26.11 76.74, 48.11 48.69, 85.38 4.99 M3.31 113.52 C24.3 80.83, 57.9 46.91, 80.84 10.23 M1.3 111.33 C31.29 72.53, 64.81 34.01, 83.75 12.86 M-3 113.6 C23.45 78.31, 59.18 50.62, 83.77 19.45 M1.37 114.31 C30.75 80.39, 65.02 42.37, 84.11 19.08 M-0.08 123.92 C28.32 85.72, 59.46 52, 87.83 26.42 M0.14 120.25 C21.72 96.64, 41.43 74.37, 82.76 26.51 M1.58 127.57 C24.75 90.37, 55.43 58.18, 81.85 32.83 M0.17 130.23 C22.88 101.16, 50.53 74.77, 85.58 31.41 M-0.12 131.78 C21.73 106.78, 49.54 84.09, 83.26 39.99 M1.24 134.7 C21.09 109.54, 42.4 83.22, 86.53 38.23 M1.99 130.9 C34.54 108.96, 54.88 77.99, 85.09 42.62 M6.92 132.83 C33.86 105.38, 57.93 71.43, 84.27 41.82 M9.43 134.51 C34.99 110.74, 47.18 85.91, 84.82 51.35 M11.18 132.96 C28.65 109.74, 49.54 87.04, 84.63 50.25 M18.13 130.03 C32.72 106.66, 59.22 91.35, 82.67 58.68 M16.15 131.62 C31.38 113.87, 48.61 99.48, 84.52 55.21 M19.4 133.79 C39.62 110.05, 64.14 84.7, 87.83 61.04 M22.69 132.98 C37.04 110.76, 57.38 94, 83.81 62.39 M26.88 136.78 C46.36 111.78, 68.22 87.91, 82.72 65.99 M26.95 134.94 C36.64 119.79, 49.94 107.02, 83.19 67.06 M33.43 135.12 C46.35 125.24, 51.78 105.75, 85.23 74.23 M30.89 132 C45.96 114.41, 65.23 94.34, 84.03 72.5 M41.36 136.07 C46.39 121.16, 57.03 109.46, 82.99 77.65 M38.18 133.66 C56.99 114.41, 74.69 92.32, 84.31 80.36 M44.76 132.08 C52.73 119.58, 58.06 114.19, 86.25 81.73 M42.07 134.78 C57.94 117.93, 70.11 103.87, 85.09 85.52 M50.31 131.21 C60.66 118.45, 71.65 101.49, 82.86 91.39 M47.9 134.45 C61.23 119.7, 76.99 103.24, 83.12 90.22 M56.29 134.93 C62.52 120.81, 73.48 110.3, 83.11 101.44 M53.7 134.15 C61.35 120.33, 74.48 111.73, 85.32 98.94 M58.08 135.85 C70.11 126.72, 79.47 110.05, 86.02 102.58 M57.34 131.81 C66.82 126.51, 73.96 118.54, 84.7 104.78 M67.18 135.5 C71.3 125.65, 73.14 120.22, 85.6 111.42 M65.12 132.02 C69.04 125.61, 76.14 121.66, 84.22 111.82 M68.67 134.04 C79.52 125.53, 80.77 117.44, 83.75 112.95 M70.94 132.05 C74.5 128.72, 80.63 121.24, 83.33 114.01 M72.82 132.46 C75.71 129.3, 81.31 130.77, 84.99 125.35 M73.29 132.5 C79.49 128.72, 82.27 124.21, 82.98 121.56 M79.45 134.19 C81.51 133.36, 83.16 130.02, 84.8 129.56 M80.24 133.31 C81.65 131.26, 82.78 130.91, 84.64 129.29" stroke="#a3be8c" stroke-width="0.5" fill="none"></path><path d="M-3.01 2.28 C17.89 0.42, 40.47 0.74, 86.77 2.16 M1.89 1.76 C33.04 2.31, 61.9 -0.03, 82.85 -0.08 M80.65 -2.11 C83.17 34.97, 86.13 63.01, 83.66 131.82 M82.94 0.36 C82.98 29.59, 82.74 63.11, 82.87 132.43 M80.25 136.87 C56.46 135.32, 28.67 129.54, -0.05 131.22 M83.66 131.33 C62.14 132.64, 36.88 131.81, 1.76 132.03 M-2.11 130.04 C2.31 94.78, 4.67 61.67, -2.45 3.02 M-0.3 131.63 C2.53 94.1, 3.36 56.37, 1.22 1.81" stroke="#fff" stroke-width="1" fill="none"></path></g><g transform="translate(508.49305080884045 81.5263157894737) rotate(0 35.5 25)"><text x="0" y="18" font-family="Virgil, Segoe UI Emoji" font-size="20px" fill="#fff" text-anchor="start" style="white-space: pre;" direction="ltr">List</text><text x="0" y="43" font-family="Virgil, Segoe UI Emoji" font-size="20px" fill="#fff" text-anchor="start" style="white-space: pre;" direction="ltr">Synergy</text></g><g stroke-linecap="round" transform="translate(600.4930508088405 44) rotate(0 102 82)"><path d="M0 0 C0 0, 0 0, 0 0 M0 0 C0 0, 0 0, 0 0 M-0.57 6.16 C1.7 4.39, 3.39 2.62, 4.51 0.33 M-0.27 5.96 C1.36 4.86, 3.38 1.71, 5.78 0.21 M-1.33 13.16 C5.62 5.95, 8.34 4.41, 10.64 -1.87 M1.08 10.59 C2.45 8.24, 6.53 3.87, 9.48 -0.79 M-3.13 15.08 C2.78 14.43, 7.08 2.29, 16.79 0.57 M0.24 18.59 C6.71 10.54, 10.93 6.77, 14.28 2.03 M-1.69 27.56 C5.7 16.35, 9.59 14.7, 19.2 2.16 M0.96 25.49 C6.42 16.47, 13.07 11.94, 19.98 0.99 M3.41 31.62 C4.05 26.31, 10.99 20.43, 30.17 1.28 M1.89 31.13 C4.05 23.99, 13.04 15.72, 26.88 2.12 M-1.13 34.4 C11.6 24.96, 21.35 9.36, 34.87 0.13 M-2.13 35.71 C9.53 26.45, 20.12 13.43, 33.52 0.01 M3.63 43.43 C9.12 32.83, 13.07 29.91, 34.29 -1.91 M0.06 41.77 C11.25 25.92, 26.42 12.13, 37.01 -0.27 M3.15 48.63 C9.52 36.14, 24.99 22.06, 42.8 -2.58 M-0.15 48.61 C13.61 30.53, 27.33 15.4, 44.16 -1.03 M2.22 52.85 C19.81 34.03, 39.11 12.63, 51.12 -2.96 M-0.66 55.15 C10.53 42.94, 22.54 28.42, 48.09 2.17 M3.99 57.55 C11.92 41.17, 29.54 21.59, 55.81 -1.73 M-0.07 62.02 C21.7 37.31, 40.97 15.71, 51.4 -1.4 M-1.2 69.37 C12.26 54.44, 27.8 41.46, 54.28 -1.44 M0.84 66.48 C22.17 41.34, 45.49 16.02, 58.75 0.56 M2.49 74.07 C14.41 59.48, 33.11 41.06, 66.31 -2.72 M-1.02 72.79 C24.08 44.08, 50.96 12.75, 63.97 1.42 M-1.37 82.6 C19.58 56.06, 42.02 35.26, 65.01 -2.55 M0.85 78.55 C17.03 60.37, 34.57 38.74, 66.77 1.82 M-0.61 81.5 C32.04 55.88, 60.85 23.25, 78.35 3.45 M1.04 85.6 C24.87 55.39, 53.18 24.37, 75.76 -0.24 M0.58 90.76 C32.2 59.86, 57.27 22.59, 80.17 -1.14 M-1.16 90.18 C33.07 53.99, 61.68 20.05, 81.16 0.71 M2.41 98.25 C25.79 70.49, 54.08 39.43, 83.62 0.12 M0.7 97.71 C19.94 75.42, 35.01 56.57, 85.85 -0.23 M-0.16 105.72 C33 68.15, 57.49 28.84, 88.24 2.35 M0.16 105.27 C36.33 62.97, 73.27 20.67, 90.09 -0.22 M-3.17 110.86 C23.84 79.68, 45.1 58.83, 93.4 1.04 M1.71 107.91 C29.47 76.51, 56.95 41.52, 94.52 1.42 M3.2 113.71 C32.94 77.01, 63.23 38.71, 101.33 1.84 M-0.68 113.54 C37.22 73.07, 79.59 25.91, 100.92 1.39 M-2.39 118.5 C25.75 96.35, 44.84 64.61, 106.62 2.3 M1.02 121.07 C37.88 78.33, 76.11 37.82, 107.23 -1.53 M-3.57 132.09 C33.23 88.39, 72.29 39.94, 115.19 1.62 M-0.62 127.27 C39.29 77.53, 82.93 26.69, 112.23 -0.28 M3.99 129.98 C29.96 103.14, 61.75 69.08, 117.17 -0.86 M-0.56 133.13 C36.51 96.05, 73.13 53.3, 117.97 -0.72 M2.89 142.33 C45.11 91.85, 84.5 40.49, 125.17 0.36 M-1.44 142.28 C34.8 104.6, 66.35 66.99, 121.73 0.77 M-1.18 148.45 C42.65 98.77, 73.57 58.22, 124.55 -1.08 M0.95 147.82 C34.04 107.56, 65.74 71.56, 127.88 -0.28 M-0.36 150.74 C49.62 94.4, 100.59 35.42, 134.09 -0.81 M-1.55 150.68 C26.27 117.93, 59.72 80.32, 134.18 -1.48 M-3.6 156.53 C26.12 125.41, 61.98 88.16, 137.84 1.46 M0.05 157.61 C46.72 107.65, 92.36 55.42, 137.36 -0.16 M-0.1 161 C38.63 115.6, 87.37 61.9, 144.83 1.1 M1.59 164.78 C48.38 109.84, 96.44 51.42, 142.37 -1.69 M8.32 161.32 C56.25 105.79, 108.34 46.22, 146.81 -2.72 M6.35 164.97 C40.84 125.05, 69.74 90.42, 148.49 0.43 M7.57 162.44 C66.07 103.56, 120.68 33.74, 152.1 -2.91 M11.92 164.08 C63.55 100.61, 116.91 38.87, 152.84 1.17 M16.78 166.7 C57.78 122.34, 92.67 75.07, 159.64 -2.96 M15.67 164.2 C43.33 127.16, 75.14 94.9, 157.14 0.56 M23.08 167.63 C62.31 117.16, 107.33 67.61, 164.43 1.25 M20.45 164.69 C75.31 100.3, 128.48 37.29, 164.21 1.26 M28.85 161.12 C61.23 131.35, 89.52 94.73, 166.46 2.79 M27.56 163.18 C81.18 100.16, 135.34 39.83, 170.79 0.79 M32.68 161.64 C85.44 100.45, 148.13 34.64, 176.16 1.87 M33.12 165.22 C80.14 114.41, 122.2 62.66, 174.47 -0.5 M34.94 164.67 C78.72 123.62, 116.61 80.45, 181.49 1.21 M38.45 164.39 C90.88 98, 145.99 38.01, 180.52 -0.21 M39.66 162.95 C74.49 122.46, 115.05 79.67, 188.25 3.24 M42.98 165.87 C69.54 130.1, 98.82 95.96, 184.37 0.13 M46.05 164.64 C104.16 100.61, 156.95 30.71, 187.21 -1.49 M47.59 163.12 C88.02 118.47, 132.18 69.9, 192.4 1.27 M50.49 167.74 C104.45 106.88, 156.66 40.91, 194.38 -2.22 M54.56 164.9 C113.85 102.23, 167.33 36.3, 197.44 0.25 M58.23 165.09 C86.26 127.68, 124.36 94.85, 204.16 -0.54 M59.81 165.72 C108.5 104.06, 161.48 44.89, 199.59 0.08 M60.83 163.8 C95.32 127.71, 127.93 88.84, 207.49 2.37 M63 165.66 C105.14 116.86, 147.15 69.32, 204.75 1.81 M69.2 162.9 C93.49 130.02, 127.75 98.21, 207.67 8 M67.23 165.71 C99.25 130.47, 128.72 95.69, 203.62 7.17 M76.61 165.42 C103.87 121.53, 138.64 90.5, 205.74 15.75 M74.91 162.55 C104.77 128.85, 134.16 95.37, 207.55 14.15 M81.59 166.61 C120.31 115.58, 156.28 75.44, 206.26 23.54 M80.46 165.7 C120.23 123.58, 157.54 79.15, 206 21.22 M85.74 164.44 C109.89 136.85, 138.01 98.79, 204.17 26.56 M83.77 165.97 C125.14 114.19, 171.66 63.17, 205.16 27.69 M90.39 163.86 C131.3 124.98, 165.98 77.46, 205.83 33.92 M88.22 163.31 C115.59 130.62, 144.42 98.63, 206.79 33.41 M93 165.51 C127 125.18, 165.58 80.47, 203.61 41.41 M95.3 165.95 C121.69 132.7, 146.77 102.78, 206.95 36.65 M98.37 167.72 C131.01 131.98, 161.3 100.71, 204.72 46.17 M101.36 164.36 C123.26 137.86, 145.61 110.41, 206.65 45.02 M108.17 164.22 C128.65 134.7, 151.05 108.26, 202.25 48.52 M104.67 165.38 C127.57 141.3, 147.62 117.63, 204.47 49.62 M107.9 161.88 C139.06 133.9, 168.28 101.29, 203.96 58.4 M110.11 166.33 C135.08 133.54, 160.44 103.97, 207.02 55.94 M120.43 162.46 C140.82 141.1, 158.42 122.45, 206.59 61.42 M116.23 165.16 C144.79 128.83, 173.87 94.94, 204.89 62.16 M120.96 164.38 C148.66 128.99, 182.49 98.68, 202.15 64.83 M123.92 162.54 C153.92 127.81, 184.9 89.2, 204.49 69.63 M130.57 160.44 C149.19 133.73, 177.29 107.5, 206.74 72.03 M127.5 164.01 C146.3 146.52, 163.27 127.55, 206.58 73.64 M131.16 163.62 C151.34 137.6, 176.24 117.52, 207.57 84.33 M131.38 166.11 C155.6 136.85, 182.44 105.77, 206.85 81.62 M135.02 164.78 C158.85 138.3, 179.05 116.55, 207.78 83.41 M137.18 162.46 C158.36 142.73, 175.2 121.37, 206.43 87.98 M139.74 166.42 C158.03 146.2, 168.6 133.68, 208.75 93.37 M144.32 165.96 C161.29 143.86, 181.51 123.75, 203.76 92.5 M149.82 164.45 C168.12 142.85, 194.4 118.5, 208.37 98.72 M149.17 162.83 C164.86 147.57, 177.68 129.94, 206.5 98.68 M155.57 165.94 C166.46 147.25, 176.66 133.91, 205.88 106.83 M153.71 162.83 C167.41 152.97, 177.55 137.03, 206.04 104.66 M162.66 162.82 C178.96 149.5, 195.74 128.88, 204.86 109.75 M160.57 165.29 C171.86 151, 182.55 141.35, 206.07 109.3 M163.11 165.72 C177.14 143, 195.92 132.99, 202.1 114.67 M165.73 165.29 C177.67 150.97, 188.47 137.69, 205.07 119.07 M172.16 162.37 C183.41 150.25, 199.65 129.59, 201.85 125.92 M168.98 164.54 C181.5 152.19, 189.85 140.55, 204.24 122.45 M178.5 163.68 C182.46 153.75, 191.54 139.52, 206.14 127.01 M173.76 165.7 C183.16 152.93, 191.02 145.4, 207.37 128.26 M182.58 161.7 C185.13 154.3, 188.73 150.68, 203.58 135.04 M179.17 162.85 C187.95 156.77, 196.02 148.64, 207.33 136.56 M185.46 168.12 C194.43 158.71, 202.72 150.58, 204.39 138.57 M186.35 164.24 C192.6 158.43, 195.46 153.73, 206.68 140.8 M191.8 168.05 C196.68 158.29, 198.8 154.9, 205.25 144.02 M191.15 166.56 C194.7 158.77, 197.13 154.88, 204.16 146.63 M198.5 165.25 C200.44 158.23, 204.88 154.05, 204.18 150.89 M195.61 164.69 C199.24 159.82, 204.2 157.11, 206.31 154.13 M201.63 163.86 C202.48 162.57, 204.76 160.15, 204.89 159.98 M201.85 164.1 C203.07 162.88, 204.3 161.86, 205.21 160.37" stroke="#ebcb8b" stroke-width="0.5" fill="none"></path><path d="M-2.18 -2.76 C38.66 2.27, 82.8 0.12, 207.07 -1.79 M1.02 -1.39 C68.52 2.07, 136.75 3.98, 204.97 1.38 M207.51 2.73 C205.13 33, 200.44 69.48, 203.83 161.81 M202.95 -0.1 C202.31 46.71, 200.02 90.48, 203.41 162.61 M204.65 164.31 C150.08 161.95, 103.17 160.05, -1.01 165.35 M205.73 164.37 C155.14 161.21, 102.71 160.56, -0.8 163.7 M-3.34 167.85 C-0.66 127.92, -2.31 93.55, -1.95 -1.23 M-1.48 163.89 C-3.66 131.46, -2.32 95.56, 1.51 -0.13" stroke="#fff" stroke-width="1" fill="none"></path></g><g transform="translate(609.4930508088405 53.5263157894737) rotate(0 60 12.5)"><text x="0" y="18" font-family="Virgil, Segoe UI Emoji" font-size="20px" fill="#fff" text-anchor="start" style="white-space: pre;" direction="ltr">TodoSynergy</text></g><g stroke-linecap="round" transform="translate(608.4930508088405 165.5263157894737) rotate(0 92.5 17)"><path d="M0 0 C0 0, 0 0, 0 0 M0 0 C0 0, 0 0, 0 0 M-0.95 5.92 C1.51 5.34, 4.21 3.57, 4.98 -0.52 M-0.47 7.19 C0.9 4.66, 2.2 2.65, 4.62 0.64 M-0.69 12.05 C2.44 7.57, 10.1 2.21, 12.53 -2.94 M-0.69 10.89 C2.06 9.6, 4.48 6.97, 9.43 -1.38 M-3.78 19.62 C3.58 16.15, 6.93 8.75, 16.36 0.63 M0.44 17.1 C7.78 10.15, 13.28 6.62, 14.64 2.06 M2.15 22.02 C9.56 15.57, 12.68 9.17, 22.65 2.74 M1.94 22.8 C7.79 14.9, 14.74 8.49, 22.96 0.5 M2.46 34.41 C7.92 18.79, 13.87 15.24, 30.02 1.6 M-1.47 31.12 C7.41 23.84, 9.39 18.12, 25.81 -0.95 M-2.86 38.34 C11.35 23.54, 19.84 11.35, 28.14 -2.44 M-0.55 37 C10.26 22.45, 20.16 11.78, 33.64 0.35 M10.4 32.38 C15.34 25.59, 31.9 8.35, 36.72 -1.25 M6.32 35.11 C13.87 26.28, 20.92 19.18, 38.51 0.11 M12.56 35.61 C16.3 28.18, 27.2 21.03, 42.47 -0.74 M11.5 36.97 C20.22 27.14, 30.15 17.05, 43.49 -1 M18.9 38.55 C23.74 20.63, 33.92 14.75, 45.64 1.39 M17.26 35.53 C25.36 27.58, 30.88 19.11, 49.5 -1.48 M20.23 37.96 C27.19 31.66, 33.88 19.87, 53 1.95 M22.75 33.55 C32.75 20.55, 44.97 9.25, 52.68 0.83 M31.88 31.05 C34.56 28.2, 47.07 17.52, 60.33 -1.56 M29.33 35.51 C38.08 21.84, 47.16 11.01, 59.31 0.72 M36.21 37.79 C37.78 29.63, 51.38 18.59, 61.45 -0.63 M31.5 35.46 C43.21 24.37, 49.72 12.97, 63.15 1.39 M39.59 31.11 C44.43 23.5, 56.34 12.24, 70.7 -1.55 M38.23 32.87 C48.36 27.39, 53.63 14.48, 68.33 -1.62 M46.91 39.17 C57.39 24.99, 67.42 11.02, 75.94 0.88 M43.87 36.58 C51.72 26.21, 58.42 16.41, 74.69 -0.58 M46.61 35.6 C58.29 26.35, 66.72 11.46, 77.05 -2.41 M49.49 36.59 C60.09 24.35, 68.55 13.51, 80.72 0.32 M57.13 33.77 C62.37 21.72, 69.34 15.99, 86.94 -0.53 M53.78 36.01 C67.24 22.09, 79.59 7.2, 84.88 0.84 M55.95 33.01 C72.86 26.89, 80.67 9.3, 90.05 3.66 M58.44 34.86 C68.92 22.19, 78.72 14.72, 88.5 0.57 M66.04 32.89 C77.68 22.12, 88.26 13.2, 99.32 -4.24 M63 34.01 C78.54 21.12, 89.09 8.07, 97.13 -1.22 M68.94 35.44 C81.82 27.76, 91.37 9.76, 98.74 -3.91 M70.24 35.03 C78.01 25.27, 85.2 20.11, 99.45 -1.66 M75.18 35.45 C89.59 23.45, 96.87 7.39, 108.3 -2.04 M77.06 36.06 C82.66 26.31, 93 16.53, 104.63 1.54 M76.68 39.39 C89.41 29.95, 98.44 19.33, 110.54 -2.08 M79.18 36.42 C86.65 27.48, 92.17 21.46, 113.2 -1.98 M88.48 35.99 C92.74 25.18, 98.86 14.54, 114.85 -1.29 M85.33 36.79 C92 27.44, 102.61 17.78, 117.77 1.36 M94.57 38.71 C102.55 21.14, 113.52 5.06, 119.26 3.82 M91.37 35.26 C103.69 21.74, 113.81 9.41, 121.19 1.21 M96.22 32.7 C107.71 20.2, 119.45 6.06, 128.24 3.98 M97.01 36.03 C105.12 27.65, 115.35 15.97, 126.69 -0.58 M102.45 37.13 C109.97 22.06, 123.84 15.95, 129.05 -3.89 M100.72 37.24 C105.9 26.04, 114.85 19.92, 130.64 -1.34 M107.08 35.37 C114.78 28.7, 119.34 17.18, 138.19 -2.37 M109.07 34.82 C116.13 24.35, 127.58 13.92, 137.38 -1.67 M111.17 37.28 C119.57 29.48, 125.86 20.35, 146.46 0.69 M111.64 34.46 C119.59 25.51, 131.21 13.12, 144.63 -1.65 M116.1 33.43 C123.64 21.26, 133.77 15.33, 149.43 2.41 M118.34 35.37 C130.66 23.76, 143.11 7, 146.31 -0.86 M121.97 33.38 C127.77 28.82, 140.21 19.59, 156.42 -0.88 M122.33 34.23 C133.48 24.5, 139.05 15.3, 154.01 1.42 M128.7 35.92 C133.58 21.25, 148.19 16.33, 157.06 0.66 M129.41 33.06 C135.68 27.7, 142.82 20.02, 159.75 2.11 M134.45 35.31 C144.32 27.36, 152.27 15.39, 162.22 0.58 M132.83 35.05 C143.96 24.08, 149.53 15.61, 165.46 -1.8 M136.68 31.52 C153.56 24.31, 160.47 11.21, 170.56 -1.61 M138.73 36.48 C149.43 26.01, 158.81 13.98, 169.79 -1.35 M146.6 36.54 C153.38 26.87, 155.67 17.19, 177.52 1.85 M144.98 34.59 C155.5 21.09, 166.59 6.43, 173.49 0.22 M150.21 36.53 C161.69 25.31, 172.34 13.01, 181.8 1.2 M150.54 35.42 C158.96 23.44, 169.59 15.4, 178.32 -0.61 M154.77 38.18 C165.61 23.16, 172.32 17.87, 185.73 4.13 M154.41 33.72 C164.06 27.52, 173.89 17.12, 183.74 0.95 M157.83 30.87 C167.1 24.45, 179.41 12.13, 183.76 4.36 M160.9 36.82 C167.73 28.61, 172.64 18.29, 183.82 8.17 M161.7 32.98 C167.8 33.92, 171.65 22.04, 188.06 14.02 M166.59 36.49 C173.33 25.17, 180.64 18.05, 185.14 12.84 M174.46 38.09 C173.44 33.45, 178.76 28.35, 189.05 20.73 M169.66 32.83 C175.7 28.04, 178.22 25.91, 183.79 17.97 M176.38 36.65 C178.77 33.13, 180.47 29.31, 183.81 26.9 M176.59 34.45 C179.3 30.99, 182.31 30.11, 185.42 23.94 M182.68 35.43 C182.53 33.16, 182.56 32.77, 184.09 31.64 M181.46 34.28 C182.45 33.69, 183.6 33.42, 185.33 31.18 M-0.23 33.8 C-0.23 33.8, -0.23 33.8, -0.23 33.8 M-0.23 33.8 C-0.23 33.8, -0.23 33.8, -0.23 33.8 M6.93 34.36 C5.66 32.2, 0.72 28.77, 0.85 29.73 M6.39 34.25 C4.91 31.85, 3.01 30.23, 0.24 28.87 M9.65 33.4 C9.33 33.65, 8.62 26.18, -2.69 26.25 M12.62 34.24 C11.39 32.39, 5.87 28.93, -0.18 22.89 M14.44 34.1 C14 25.9, 5.63 26.81, -3.84 15.76 M17.48 35.06 C16.17 30.95, 10.84 29.2, -1.32 18.87 M23.32 32.4 C22.28 27.07, 16.25 27.35, -1.36 16.18 M24.1 35.75 C13.79 25.64, 6.47 18.63, -1.52 14.16 M33.23 32.73 C21.72 22.1, 11.54 17.59, 1.14 7.29 M32.24 34.66 C21.39 23.52, 12.31 18.69, 0.92 7.62 M33.54 30.78 C22.21 19.12, 7.83 13.54, -3.9 4.47 M36.82 33 C25.42 24.88, 14.08 16, -2.11 0.62 M44.01 33.02 C34.04 24.24, 25.07 15, -1.13 1.99 M42.69 36.08 C32.01 22.42, 20.55 13.27, 3.2 -2.57 M48.79 34.86 C32.37 21.97, 20.71 4.18, 6.22 0.7 M47.12 33.15 C37.68 24.57, 25.52 13.08, 7.38 -1.53 M58.44 30.94 C43.14 30.39, 40.29 19.23, 17.26 -5.65 M54.08 33.28 C42.75 22.52, 27.59 10.94, 15 -3.69 M60.42 34.74 C50.44 22.76, 40.66 17.65, 19.53 -1.66 M61.15 34.58 C46.17 22.39, 34.23 8.53, 19.2 -2.02 M68.83 36.09 C61.11 26.69, 47.67 19.49, 22.97 1.42 M65.7 35.37 C57.62 26.2, 45.63 18.44, 23.95 -1.64 M74.92 36.82 C58.89 22.99, 47.94 11.83, 29.68 -4.83 M71.64 35.48 C61.21 20.11, 45.52 9.78, 30.22 -0.74 M77.08 37.01 C66.84 21.66, 49.34 7.05, 40.38 1.71 M79.92 32.01 C69.92 27.24, 58.89 18.61, 38.83 -1.26 M86.88 37.15 C74.79 24.94, 64.38 19.77, 44.45 -4.15 M86.85 35.28 C70.98 20.01, 55.89 10.77, 44.86 -1.09 M87.51 33.87 C81.69 20.24, 65.63 8.87, 49.94 -4.61 M90.94 34.03 C76.65 22.33, 62.7 7.91, 51.98 -2.19 M99.55 33.37 C80.03 18.63, 63.78 4.68, 58.02 0.7 M99.11 34.58 C81.85 23.18, 70.9 10.97, 55.36 -1.32 M107.52 31.13 C90.94 25.66, 81.37 12.24, 64.77 0.25 M105.49 34.11 C92.6 23.89, 78.29 12.78, 63.78 -2.91 M105.79 30.1 C99.39 23.45, 84.53 9.47, 67.68 -1.72 M109.83 32.49 C94.31 20.67, 78.49 7.77, 70.53 -1.8 M112.66 34.91 C103.73 23.65, 98.1 19.22, 71.61 1 M115.88 36.14 C102.41 21.44, 92.56 11, 75.72 -3.36 M120.82 31.56 C110.3 21.97, 96.42 14.26, 78.85 -5.17 M122.22 35.31 C109.94 24.56, 94.47 10.28, 80.74 0.31 M131.1 32.9 C111.17 20.25, 98.94 12.3, 87.56 -1.98 M128.47 35.18 C111.08 19.97, 95.73 6.09, 87.05 -0.3 M135 34.28 C116.77 21.01, 109.04 11.48, 93.58 2.19 M134.06 33.19 C120.95 23.87, 109.37 13.42, 94.41 -1.01 M136.64 31.78 C123.59 25.31, 111.55 9.4, 96.87 -0.05 M140.69 34.82 C130.94 26.65, 117.96 18.47, 99.63 -2.65 M142.81 32.42 C135.8 24.82, 126.04 18.83, 107.54 -4.85 M146.68 33.49 C132.38 21.31, 114.57 9.56, 103.04 -3.24 M153.44 33.84 C140.88 24.46, 128.32 13.06, 111.87 -2.92 M153.8 31.82 C140.68 23.97, 133.79 17.54, 110.84 -2.11 M155.37 37.77 C146.35 21.29, 140.19 11.03, 118.76 0.14 M157.47 32.74 C142.12 21.43, 129.62 6.98, 117.95 -2.65 M168.81 37.68 C155.69 23.88, 143.48 14.78, 121.55 -2.69 M165.59 32.8 C154.56 28.27, 146.2 20.46, 122.15 -1.2 M173.4 37.05 C152.29 18.01, 142.33 10.47, 128.44 -0.14 M168.91 33.99 C163.85 27.01, 153.64 16.81, 130.99 -1.71 M178.16 35.52 C166.91 24.48, 150.17 9.89, 136.53 -0.5 M175.43 35.6 C159.09 20.33, 141.69 6.52, 136.09 0.05 M180.01 32.62 C171.62 17.78, 157.28 13.55, 145.84 -5.33 M181.27 35.49 C170.05 23.49, 159.18 13.48, 143.59 -3.63 M187.26 31.23 C178.03 22.65, 162.65 13.14, 149.78 -5.87 M186.5 31.24 C174.31 19.02, 157.32 6.08, 148.98 -3.17 M188.38 27.26 C177.86 17.43, 164.81 11.81, 152.91 -1.47 M188.32 27.44 C176.66 20.6, 169.26 10.89, 155.25 -0.49 M190.26 19.04 C173.5 16.19, 171.16 3.83, 161.42 -4.02 M187.72 22.69 C178.75 14.73, 168.77 8.53, 159.74 0.16 M182.9 18.51 C178.62 11.48, 171.36 2.42, 165.17 -3.64 M186.51 14.4 C178.12 8.87, 171.75 1.24, 164.53 -3.83 M185.07 11.86 C178.49 7.28, 176.44 0.01, 175.5 1.31 M185.31 9.26 C182.17 7.1, 176.91 2.5, 170.89 -1.71 M186.62 4.45 C184.87 3.41, 181.82 1.96, 177.14 -0.4 M186.47 4.79 C183.7 4.28, 182.76 2.32, 177.88 -3.23" stroke="#bf616a" stroke-width="0.5" fill="none"></path><path d="M-3.31 3.44 C36.56 2.46, 78.46 -1.9, 187.28 -3.1 M1.38 1.08 C61.56 -2.82, 118.98 0.69, 186.76 1.37 M182.71 -0.17 C182.32 11.68, 181.02 21.9, 182.89 33.8 M184.83 -0.59 C184.08 11.3, 187.23 23.33, 185.36 34.17 M182.74 32.87 C140.83 35.1, 93.92 33.58, 3.87 34.83 M184.98 33.11 C118.95 29.21, 53.55 30.36, -1.67 35.93 M3.52 32.05 C-1.39 20.58, 2.83 12.66, -2.96 -0.21 M-1.22 35.51 C-0.49 24.52, -0.23 17.41, -1.37 0.75" stroke="#fff" stroke-width="1" fill="none"></path></g><g transform="translate(615.4930508088405 170.5263157894737) rotate(0 62 12.5)"><text x="0" y="18" font-family="Virgil, Segoe UI Emoji" font-size="20px" fill="#fff" text-anchor="start" style="white-space: pre;" direction="ltr">InputSynergy</text></g><g stroke-linecap="round" transform="translate(10 11.429824561403393) rotate(0 173.49999999999997 109.50000000000003)"><path d="M1.08 -0.06 C71.43 0.21, 145.05 1.63, 344.6 0.41 M-0.98 0.87 C115.13 -4.52, 229.13 -3.54, 346.37 0.06 M346.45 -1.29 C345.76 77.21, 347.49 152.03, 345.85 220.2 M345.46 1.47 C343.77 85.46, 345.06 167.54, 347.85 219.18 M344.83 218.81 C222.58 222.59, 97.13 217.9, 0.32 221.1 M347.19 217.79 C269.15 222.87, 189.1 223.5, 0.02 219.23 M-0.11 217.82 C-3.46 171.5, -4.86 130.5, 0.74 1.81 M-1.71 219.67 C-4.84 172.44, -2.71 123.68, -0.82 -0.68" stroke="#fff" stroke-width="1" fill="none"></path></g><g transform="translate(13.330827067669134 14.098997493734373) rotate(0 46.5 12.5)"><text x="0" y="18" font-family="Virgil, Segoe UI Emoji" font-size="20px" fill="#fff" text-anchor="start" style="white-space: pre;" direction="ltr">Todo App</text></g><g stroke-linecap="round" transform="translate(35.473684210526244 72.9561403508772) rotate(0 42 66.5)"><path d="M0 0 C0 0, 0 0, 0 0 M0 0 C0 0, 0 0, 0 0 M0.77 6.38 C0.71 4.75, 1.05 2.88, 4.84 1.67 M0.53 6.79 C0.63 5.07, 2.65 3.69, 5.3 1.08 M2.41 10.55 C3.54 7.02, 7.72 5.9, 10.52 0.9 M-0.37 13.63 C2.92 5.58, 7.93 1.28, 9.8 1.03 M-1.71 18.28 C5.82 16.46, 5.78 10.19, 16.48 -3.17 M-0.01 17.97 C4.92 13.85, 8.69 10.83, 17.58 -1.6 M2.91 26.27 C3.55 18.83, 12.19 14.06, 24 1.15 M-0.21 25.25 C7.77 15.72, 15.89 9.66, 22.89 1.2 M2.09 28.15 C5.22 22.5, 13.49 18.56, 23.35 0.68 M-1.32 29.85 C11.67 18.7, 19.46 8.4, 26.75 -1.59 M-3.47 38.81 C5.8 27.15, 16.1 17.65, 31.17 -4.1 M-1.84 36.44 C9.65 24.02, 25.16 9.83, 33.56 1.87 M0.65 44.05 C15.2 24.37, 30.34 11.58, 37.46 2.96 M1.25 42.8 C10.33 31.57, 22.69 17.22, 35.57 0.64 M0.88 46.57 C7.92 37.46, 19.05 19.55, 43.06 3.38 M0.49 50.25 C14.04 32.5, 29.69 17.26, 43.98 -0.85 M0.5 56.46 C15.67 41.91, 26.67 19.78, 46.66 1.85 M0.35 54.41 C15.22 39.21, 28.41 19.67, 45.56 -0.67 M-1.34 60.98 C21.36 39.72, 36.51 20.5, 50.33 -0.06 M1.88 59.43 C16.49 44.58, 29.54 26.84, 53.75 -1.31 M3.18 71 C15.37 48.51, 40.21 24.67, 54.46 -2.1 M1.16 68.81 C21.13 41.69, 44.52 14.83, 57.37 0.53 M-3.14 71.08 C16.74 44.04, 45.46 24.42, 63.29 0.33 M1.23 71.79 C22.82 46.83, 49.63 17.38, 63.64 -0.05 M-0.22 81.4 C22.6 49.66, 47.98 22.57, 71.95 2.02 M0 77.73 C17.89 58.65, 33.82 40.74, 66.88 2.1 M2.1 84.29 C21.91 51.35, 49.02 23.27, 71.87 1.63 M0.69 86.96 C20.28 61.2, 44.94 38.25, 75.6 0.21 M-0.91 90.01 C19.7 66.35, 46.27 45.09, 77.87 3.51 M0.45 92.94 C19.24 69.15, 39.43 44.13, 81.14 1.75 M-4.05 95.17 C30.36 71.14, 52.54 38.07, 84.95 0.1 M0.88 97.11 C29.83 67.4, 55.9 31.14, 84.13 -0.7 M-1.86 104.82 C26.93 77.55, 42.25 49.13, 85.34 8.07 M-0.12 103.27 C20.3 76.26, 44.37 49.9, 85.15 6.98 M1.59 106.38 C21.02 77.43, 52.1 56.85, 82.53 16.16 M-0.39 107.97 C18.74 85.91, 39.59 67.36, 84.38 12.69 M-2.39 116.18 C24.85 84.2, 56.58 50.58, 87.69 18.52 M0.9 115.37 C21.14 86.03, 47.4 62.46, 83.67 19.87 M-0.15 125.2 C28.26 89.43, 59.34 54.97, 83.24 22.71 M-0.09 123.37 C14.99 101.61, 34.02 82.24, 83.71 23.78 M1.15 129.58 C21.52 112.16, 33.83 84.75, 85.09 31.71 M-1.39 126.46 C22.88 97.18, 52.11 65.67, 83.89 29.98 M4.49 135.82 C17.11 111.34, 35.97 90.18, 83.51 34.37 M1.3 133.4 C34.38 98.75, 66.08 60.55, 84.83 37.08 M7.89 131.83 C24.27 110.21, 37.26 96.01, 86.11 39.21 M5.19 134.52 C32.78 103.71, 56.66 76.19, 84.95 43 M13.43 130.95 C35.61 103.76, 59.1 72.42, 82.72 48.87 M11.02 134.19 C39.17 103.83, 68.95 71.25, 82.98 47.7 M19.41 134.67 C39.01 104.75, 63.97 78.15, 83.63 58.17 M16.82 133.89 C36.1 105.35, 61.72 82.39, 85.84 55.67 M21.21 135.59 C46.32 111.75, 68.88 79.9, 85.88 60.06 M20.46 131.56 C40.64 114.78, 58.16 94.87, 84.56 62.26 M30.3 135.24 C45.87 111.24, 59.83 91.86, 85.47 68.9 M28.25 131.76 C42.78 113.11, 60.1 97.41, 84.09 69.3 M31.13 134.54 C57.72 108.15, 73.91 82.87, 83.61 70.43 M33.41 132.55 C48.14 114.82, 66.25 93.55, 83.19 71.49 M35.36 131.79 C47.76 117.56, 63.7 109.77, 85.05 83.81 M35.99 131.84 C55.92 112.77, 71.84 92.7, 82.37 78.76 M40.14 136.71 C53.41 126.31, 65.94 107.11, 86.85 88.08 M42.78 133.79 C57.53 115.96, 70.78 103.83, 86.32 87.16 M49.01 136.9 C60.51 121.56, 65.57 113.72, 81.45 87.95 M49.75 131.65 C59.46 119.74, 71.77 107.6, 84.58 92.97 M50.81 131.64 C66.86 121.35, 72.98 109.15, 85.48 96.25 M54.72 133.94 C63.24 119.73, 75.11 110.57, 85.95 99.6 M57.29 129.57 C69.9 122.03, 73.69 111.91, 82.04 99.98 M60.44 134.53 C66.96 123.85, 71.53 116.87, 86.46 103.94 M66 134.51 C68.16 126.21, 77.96 118.12, 83 114.29 M63.24 134.77 C71.99 126.53, 76.12 116.37, 85.23 110.73 M65.88 135.16 C77.85 126.86, 83.24 117.84, 85.81 116.97 M68.14 133.63 C75.67 126.05, 82.64 119.7, 82.95 115.45 M72.79 131.58 C80.2 127.03, 80.33 126.46, 84.5 122.24 M73.76 133.79 C78.03 130.31, 82.6 125.21, 82.99 122.46 M81.37 132.14 C80.94 130.62, 82.94 129.9, 83.71 129.48 M80.78 132.9 C81.92 131.04, 83.72 129.85, 83.95 128.53" stroke="#a3be8c" stroke-width="0.5" fill="none"></path><path d="M-1.52 0.74 C26.02 2.95, 47.76 0.66, 85.14 -2.67 M1.74 -0.98 C34.1 -0.61, 63.77 -1.03, 84.94 -1.03 M84.83 1.39 C86.39 47.35, 82.25 96.03, 87.34 130.44 M83.08 1.7 C82.21 46.43, 82.61 94.05, 85.23 134.96 M85.44 136.77 C58.03 129.49, 29.95 136.08, -2.95 134.27 M85.07 132.56 C49.89 131.98, 18.27 131.81, -1.96 134.49 M-0.72 129.25 C-2.25 92.33, 0.94 53.76, -3.22 3.27 M-2 134.75 C3.07 93.33, 1.67 50.98, 1.85 -1.3" stroke="#fff" stroke-width="1" fill="none"></path></g><g transform="translate(40.473684210526244 82.9561403508772) rotate(0 30 37.5)"><text x="0" y="18" font-family="Virgil, Segoe UI Emoji" font-size="20px" fill="#fff" text-anchor="start" style="white-space: pre;" direction="ltr">My</text><text x="0" y="43" font-family="Virgil, Segoe UI Emoji" font-size="20px" fill="#fff" text-anchor="start" style="white-space: pre;" direction="ltr">Todo </text><text x="0" y="68" font-family="Virgil, Segoe UI Emoji" font-size="20px" fill="#fff" text-anchor="start" style="white-space: pre;" direction="ltr">Lists</text></g><g stroke-linecap="round" transform="translate(132.47368421052624 45.42982456140339) rotate(0 102 82)"><path d="M0 0 C0 0, 0 0, 0 0 M0 0 C0 0, 0 0, 0 0 M-0.5 6.22 C0.23 3.81, 2.97 3.73, 4.28 1.83 M-0.6 6.62 C1.57 4.88, 3.15 3.37, 4.35 -0.17 M1.07 9.53 C5.15 8.42, 4.64 7.58, 13.75 0.21 M-1.23 10.46 C3.24 6.66, 6.5 4.7, 10.01 1.2 M1.99 21.1 C2.29 14.62, 9.48 5.06, 13.17 -2.82 M0.88 18.12 C5.34 14.35, 10.77 6.28, 14.8 2.06 M-1.48 25.33 C8.91 17.96, 17.71 7.79, 22 -2.37 M0.8 23.3 C8.08 18.09, 13.48 11.91, 20 1.87 M-0.42 30.06 C11.18 22.23, 16.54 8.45, 29.5 -0.09 M1.6 30.01 C6.62 23.53, 14.56 13.06, 24.89 -0.48 M-1.96 35.88 C11.8 22.77, 20.29 8.79, 35.23 3.45 M-2.03 37.77 C9.19 29.33, 16.9 21.85, 33.74 1.02 M1.26 41.52 C15.75 29.08, 28.33 13.05, 36.88 2.57 M-0.2 43.59 C8.41 32.9, 13.87 24.97, 36.25 2.06 M-2.65 49.88 C5.85 35.23, 18.28 32.09, 43.71 0.26 M0.08 48.36 C12.61 35.79, 23.53 21.77, 42.72 -1.99 M0.02 58.51 C9.28 37.87, 25.28 25.93, 47.6 1.89 M1.39 55.69 C14.69 36.05, 27.13 20.54, 48.64 2.15 M3.59 61.34 C15.23 46.62, 27.69 26.46, 52.53 -3.01 M0.5 62.05 C13.62 43.73, 32.15 23.05, 53.82 -0.28 M-4.19 71.21 C18.98 46.91, 32.84 20.37, 61.59 0.98 M-1.16 67.67 C16.39 45.58, 33.38 26.19, 59.03 2.07 M-3.82 69.86 C26.15 50.79, 44.84 23.55, 66.45 -3.07 M-1.57 74.86 C26.07 44.3, 49.14 16.48, 65.1 0.81 M-1.81 77.92 C15.28 59.71, 36.89 41.7, 66.4 1.32 M1.77 78.45 C25.27 52.86, 46.42 26.68, 69.57 1.9 M-1.82 81.41 C26.83 50.95, 52.01 23.86, 73.82 -2.24 M-1.71 84.61 C19.13 64.23, 36.47 43.4, 73.79 -0.22 M-1.65 89.54 C20.81 74.06, 32.58 56.66, 77.2 2.77 M1 93.03 C32.64 53.18, 63.97 19.86, 79.59 -0.47 M3.6 101.12 C26.27 70.75, 51.84 41.47, 86.63 -0.49 M0.98 99.72 C19.07 72.01, 42.11 46.99, 84.33 -1.06 M3.79 102.63 C21.18 72.41, 48.6 50.94, 88.79 3.56 M-0.77 103.46 C33.15 66.26, 65.51 30.08, 89.61 -1.31 M-3.95 106.21 C40.43 70.92, 72.66 28.1, 92.48 -3.39 M-1.4 108.15 C34.36 74.63, 66.54 35.39, 96.33 0.41 M-2.39 116.11 C31.61 81.3, 62.62 48.8, 99.59 0.3 M-1.7 113.63 C38.11 73.81, 73.42 30.99, 101.34 0.89 M0.8 122.53 C39.1 78.13, 69.52 36.87, 102.62 1.86 M-1.54 121.91 C32.19 84.24, 63.55 45.58, 104.58 -1.88 M1.89 132.03 C22.15 93.75, 53.49 66.33, 111.66 3.97 M-1.37 127.95 C40.93 85.15, 76.3 42.46, 109.69 1.47 M-0.6 133.57 C33.77 90.22, 69.29 46.39, 119.25 -0.83 M1.7 134.09 C25.18 104.36, 47.3 79.27, 114.44 -1.44 M0.32 136.54 C37.2 94.22, 83.55 41.53, 122.66 -0.08 M1.76 140.42 C46.17 89.09, 90.69 36.2, 122.73 1.59 M1.02 145.19 C36.95 99.27, 74.66 57.89, 130.17 -3.41 M-1.35 147.6 C30.25 112.34, 57.6 76.3, 128.39 1.78 M-1.6 152.44 C30.33 114.57, 66.05 75.17, 133.76 3.49 M-1.36 151.22 C46.79 100.6, 92.85 46.35, 133.61 0.17 M1.57 161.96 C34.83 117.68, 66.7 81.29, 136.92 -1.04 M0.13 159.77 C34.87 124.53, 67.3 86.5, 138.06 1.72 M1.05 164.21 C41.42 111.12, 92.85 56.3, 142.42 -1.74 M-0.52 163.26 C51.55 107.23, 103.43 47.06, 144.91 -1.69 M8.94 163.51 C61.27 97.84, 117.34 32.48, 148.88 3.56 M6.17 165.07 C59.77 102.4, 111.54 38.71, 147.35 0.14 M9.21 162.69 C62.76 113.23, 109.7 57.78, 156.07 2.36 M12.52 163.4 C56.65 115.92, 96.85 67.35, 152.83 1.56 M17.69 167.14 C52.94 122.7, 83.01 92.13, 159.82 -2.54 M16.66 162.39 C60.37 114.69, 106.46 63.41, 158.48 1.26 M23.61 164.46 C67.27 109.75, 115.56 46.94, 164.4 -2.71 M21.2 162.67 C50.01 131.14, 78.6 99.54, 165.01 -0.2 M29.91 163.58 C74.68 110.95, 123.23 56.26, 170.61 -2.72 M26.23 162.37 C76.81 105.56, 129.1 47.01, 169.62 -1.21 M34.24 162.17 C66.88 123.36, 101.21 82.56, 174.2 -1.94 M32.64 163.29 C78.16 105.54, 131.2 48.31, 176.27 -1.55 M34.51 164.81 C74.5 119.42, 114.05 76.08, 181.78 0.77 M38.58 164.97 C87.32 104.07, 140.18 47.2, 181.75 0.25 M44.67 164.44 C78.79 124.67, 110.32 90.39, 188.43 -2.65 M42.8 163.84 C98.84 102.86, 149.02 41.81, 185.92 1.01 M51.48 160.46 C105.97 101, 162.57 36.14, 193.55 0.77 M48.03 164.76 C80.27 129.48, 107.76 95.33, 191.66 -0.97 M51.2 161.1 C93.75 116.01, 136.41 68.44, 199.32 0.38 M53.91 162.74 C96.1 115.37, 138.21 63.79, 197.77 -1.37 M61.46 167.39 C108.1 106.7, 159.96 48.12, 198.81 -0.82 M59.7 165.63 C105.69 112.82, 154.28 55.64, 202.38 -1.16 M63.71 164.9 C119.25 100.11, 172.71 42.32, 207.89 -1.49 M64 165.2 C115.7 100.45, 170.73 34.05, 204.94 -0.52 M71.2 163.92 C100.59 130.51, 130.36 93.05, 204.48 7.5 M67.79 163.8 C100.51 130.87, 131.27 94.79, 206.21 7.26 M77.95 162.78 C124.08 104.19, 176.14 52, 204.71 10.06 M73.85 165.89 C106.64 127.47, 139.18 90.75, 205.44 13.91 M81.76 164.04 C126.56 106.99, 176.62 50.79, 205.5 22.09 M79.53 162.59 C114.08 125.1, 151.05 83.49, 203.65 21.41 M81.45 164.92 C127.65 112.43, 166.16 64.97, 207.37 26.54 M83.41 162.33 C114.74 127, 146.48 91.97, 204.17 24.22 M90.17 166.01 C117.04 139.37, 141.15 109.78, 204.5 31.63 M89.8 163.49 C132.91 117.95, 177.12 70.38, 207.51 32.38 M99.28 161.69 C131.6 128.44, 159.97 88.86, 207.4 38.58 M96.22 163.52 C121.09 133.81, 149.35 104.83, 203.59 37.5 M97.76 165.75 C122.42 138.39, 144.02 115.83, 207.73 39.77 M101.85 165.24 C125.73 135.69, 153.14 107.01, 206.15 43.63 M109.67 161.11 C129.81 138.28, 154.05 108.19, 205.21 52.46 M106.71 162.91 C126.92 142.71, 146.2 119.52, 205.36 49.47 M109.2 165.6 C139.81 130.52, 165.63 105.73, 204.53 53.31 M112.26 164.47 C128.25 140.56, 147.75 118.6, 206.33 55.21 M114.12 165.71 C145.16 135.64, 164.06 112.1, 205.59 64.39 M116.54 165.55 C146.46 134.27, 171.77 102.04, 204.99 60.86 M124.81 166.3 C141.82 141.48, 168.03 116.97, 201.81 71.17 M122.79 163.66 C150.72 129.48, 186.22 89.91, 203.99 68.73 M129.74 164.41 C150.56 136.52, 173.29 115.62, 208.96 76.99 M126.58 164.3 C151.07 137.22, 172.34 106.05, 207.19 74.19 M132.5 166.96 C155.94 135.9, 180.65 108.66, 204.16 80.88 M132.42 163.08 C148.52 143.58, 162.57 127.12, 204.27 79.88 M141.26 164.52 C156.55 139.14, 182.52 116.56, 202.72 84 M136.9 163.85 C163.26 131.67, 191.1 101.47, 205.2 86.54 M139.81 165.06 C159.23 149.9, 174.73 132.46, 208.43 95.63 M145.29 164.82 C160.93 147.97, 176.25 129.04, 204.16 91.4 M149.04 167.7 C162.39 147.23, 178.13 132.85, 203.85 99.25 M150.72 164.69 C165.64 143.13, 183.99 123.37, 203.42 98.56 M157.94 164.45 C169.77 139.9, 189.67 119.32, 203.12 106.96 M154.73 164.77 C166.25 147.95, 180.66 128.68, 203.85 105.85 M161.08 161.99 C168.85 155.17, 182.5 141.95, 207 113.25 M158.47 163.12 C167.35 153.91, 175.18 141.78, 205.48 110.97 M161.66 167.37 C175.26 152.22, 190.45 132.17, 207.69 117.53 M163.27 164.65 C173.54 153.88, 184.93 141.45, 206.04 118.35 M168.32 162.57 C182.31 147.64, 197.7 131.67, 203.09 122.09 M169.13 164.02 C181.35 148.76, 195.86 133.77, 204.82 121.53 M177.41 166.43 C190.78 150.13, 196.79 134.83, 203.16 130.14 M174.62 163.98 C185.71 151.33, 199.05 141.01, 206.59 129.56 M179.31 160.73 C191.29 158.09, 199.29 141.14, 202.68 136.27 M180.8 165.81 C186.59 157.17, 193.11 153.25, 204.09 133.84 M187.24 160.61 C189.66 153.01, 195.26 149.48, 208.27 144.22 M185.67 164.1 C191.81 156.53, 197.99 151.75, 206.61 142.25 M192.26 168.39 C197.3 159.18, 194.87 159.38, 203.26 149.38 M192.81 164.98 C194.58 159.22, 195.12 157.26, 206.48 146.05 M193.91 163.54 C197.2 160.35, 200.41 159.47, 203.08 153.04 M195.1 164.17 C197.98 160.88, 200.93 158.89, 206.6 154.03 M200.33 165.3 C201.58 162.92, 203.43 161.51, 206.18 159.75 M201.14 164.71 C202.08 163.97, 203.61 162.54, 205.68 159.96" stroke="#ebcb8b" stroke-width="0.5" fill="none"></path><path d="M0.27 2.61 C57.47 -0.12, 122.52 -3.07, 207.05 -2.66 M1.55 0.45 C73.95 1.86, 150.46 0.86, 205 -0.28 M206.81 0.03 C203.35 44.5, 208.02 83.67, 206.11 160.44 M204.57 -0.49 C203.47 63.28, 203.72 128.11, 204.49 162.34 M205.17 160.98 C144.75 170.3, 81.98 168.57, 3.27 164.51 M202.89 164.48 C161.66 163.52, 117.51 164.53, 0.1 163.94 M-2.34 163.99 C1.45 122.44, -2.63 79.98, 0.22 -3.94 M0.45 164.95 C2.33 107.69, 5.12 51.64, -1.09 1.22" stroke="#fff" stroke-width="1" fill="none"></path></g><g transform="translate(141.47368421052624 54.95614035087715) rotate(0 30.5 12.5)"><text x="0" y="18" font-family="Virgil, Segoe UI Emoji" font-size="20px" fill="#fff" text-anchor="start" style="white-space: pre;" direction="ltr">Todos</text></g><g stroke-linecap="round" transform="translate(140.47368421052624 166.9561403508772) rotate(0 92.5 17)"><path d="M0 0 C0 0, 0 0, 0 0 M0 0 C0 0, 0 0, 0 0 M-1.42 5.8 C1.18 5.92, 2.18 4.27, 5.09 1.95 M0.08 6.78 C1.93 4.99, 2.81 1.63, 4.41 0.93 M2.93 11.07 C2.62 10.09, 8.5 6.33, 11.89 -1.03 M-0.39 10.96 C3.7 8.49, 8.1 3.84, 10.2 -0.67 M-2.16 19.56 C5.21 9.37, 6.56 4.36, 15 0.57 M0.88 19.43 C6 11.55, 7.58 10.21, 16.77 1.65 M1.72 26.83 C10.66 16.6, 16.12 4.52, 20.18 -1.03 M2.23 24.93 C9.3 16.85, 13.94 8.86, 22.79 0.98 M1.62 33.29 C3.51 23.62, 16.01 15.56, 24.65 -2.35 M-0.61 31.22 C7.07 20.62, 12.27 13.61, 26.68 -1.32 M2.19 33.46 C11.38 19.17, 26.18 14.37, 29.16 -3.27 M2.47 36.25 C11.92 27.21, 20.67 16.5, 33.44 0.15 M8.56 37.76 C17.29 26.09, 26.91 13.96, 33.32 2.49 M7.69 34.38 C14.99 24.13, 25.15 14.64, 35.13 0.76 M8.84 31.57 C20.11 30.14, 28.2 18.47, 41.07 1.1 M13.48 35.71 C24.37 21.8, 34.41 7.67, 42.01 -0.02 M13.44 33.61 C27.01 23.91, 38.44 11.89, 47.73 0.38 M17.37 32.95 C23.81 23.56, 35.71 16.24, 47.17 -0.45 M22.08 38.27 C28.12 24.7, 39.59 11.09, 53.45 3.56 M20.73 36.05 C29.64 25.9, 36.6 18.99, 53.65 1.54 M29.38 37.34 C36.77 18.45, 55.71 7.95, 58.24 3.01 M27.88 34.31 C38.76 22.2, 51.67 10.8, 59.05 -1.45 M35.77 37.74 C40.93 27.34, 51.86 15.01, 67.47 1.98 M34.71 34.52 C40.8 26.35, 49.66 18.7, 62.69 -0.26 M37.05 35.31 C52.63 24.8, 57.64 11.96, 70.85 0.4 M39.81 35.09 C42.58 29.59, 51.81 21.85, 70.19 1.07 M43.38 32.52 C50.08 27.68, 60.71 13.83, 71.95 0.58 M45.1 36.18 C57.68 21.77, 68.08 7.3, 72.65 -0.71 M52.76 36.25 C55.96 29.34, 63.26 19.42, 83.17 0.99 M50.94 33.77 C61.93 22.97, 71.69 7.74, 79.22 -1.78 M54.03 35.54 C61.29 26.03, 69.5 17.92, 83.29 1.97 M52.77 33.89 C61.64 24.09, 69.31 15.14, 84.25 -1.28 M56.42 31.28 C69.84 25.31, 78.1 15.25, 92.43 -0.44 M60.22 34.62 C69.27 25.62, 77.21 13.32, 91.93 0.94 M68.47 38.07 C70.08 31.83, 75.43 17.58, 97.55 -0.86 M65.76 36.33 C71.46 28.61, 78.57 21.89, 95.39 -1.65 M71.58 33.87 C83.93 23.29, 88.98 12.96, 103.49 1.29 M71.81 35.72 C79.41 26.13, 89.5 15.87, 101.32 -0.04 M79.04 33.81 C85.7 19.63, 95.21 10.13, 106.41 -0.56 M75.33 36 C86.56 21.14, 97.27 7.17, 105.14 0.35 M76.77 32.64 C91 23.91, 100.89 15.34, 112.84 -2.28 M82.37 33.72 C86.75 27.26, 92.04 22.34, 111.56 1.85 M85.73 34.78 C95.97 20.24, 111.26 8.58, 112.5 1.36 M87.9 33.2 C94.96 24.78, 102.43 11.72, 117.12 1.42 M88.1 36.3 C100.51 23.15, 107.58 17.78, 124.59 -1.23 M91.75 36.84 C101.57 23.09, 112.68 12.36, 122.03 0.98 M96.16 31.42 C102.44 26.16, 114.62 14.45, 124.06 -0.5 M97.08 36.05 C106.61 20.68, 119.98 11.62, 126.11 1.83 M99.32 38.23 C111.14 26.89, 123.65 16.06, 134.48 0.74 M103 37.35 C113.26 25.16, 123.07 13.5, 131.27 -0.49 M109.57 32.5 C119.39 20.56, 128.12 7.86, 134.99 -2.91 M107.69 36.48 C114.05 27.83, 121.16 20.94, 138.1 1.93 M108.5 37.4 C124.09 24.29, 132.48 9.14, 145.86 2.29 M113.02 36.58 C119.15 29.7, 127.77 18.83, 145.02 -0.54 M116.81 33.22 C126.02 21.02, 137.32 16.84, 151.46 3 M119.7 34.24 C123.59 24.49, 131.08 18.18, 148.92 -0.89 M125.3 39.17 C132.04 30.43, 141.81 20.19, 153.73 -3.52 M123.89 33.69 C127.12 26.82, 134.64 22.11, 152.22 -1.39 M132.37 31.11 C141.78 24.05, 152 5.39, 159.26 0.45 M128.3 36.87 C139.19 26.8, 146.16 15.98, 159.59 0.58 M131.02 39.28 C142.14 17.6, 156.97 4.92, 160.7 2.72 M134.88 33.63 C140.38 29.48, 147.37 20.89, 164.99 -1.4 M138.36 34.08 C147.46 24.37, 154.91 14.53, 171.82 3.05 M139.86 35.76 C150.69 26.08, 158.38 12.48, 168.33 -0.63 M142.59 31.82 C147.6 24.43, 155.4 19.14, 177 2.8 M142.45 35.19 C156.93 22.97, 167.39 8.77, 174.61 0.84 M148.52 36.44 C158.86 27.6, 171.75 13.27, 182.2 -1.22 M147.93 34.07 C161.07 22.72, 172.65 10.26, 178.53 -1.68 M156.55 33.29 C166.02 24.21, 178.43 8.48, 187.83 -2.34 M156.26 34.94 C162.56 23.98, 173.99 15.05, 186.94 -0.65 M160.21 34.86 C165.82 28.58, 174.68 22.95, 181.8 4.04 M161.25 34.81 C166.32 25.94, 176.93 15.84, 185.53 8.11 M165.09 34.54 C168.29 33.27, 177.14 27.18, 185.51 16.39 M167.14 35.3 C169.21 29.47, 176.02 23.9, 186.46 13.73 M170.41 36.37 C173.77 33.16, 175.85 24.44, 186.95 19.57 M171.75 36.77 C175.81 30.15, 178.98 25.27, 187.1 19.21 M178.83 33.52 C181.93 32.9, 183.94 26.06, 187.87 27.41 M175.41 36.08 C178.18 30.31, 181.85 26.44, 184.31 25.27 M182.26 34.69 C182.49 33.47, 182.85 33.17, 184.32 31.05 M181.96 34.73 C182.63 33.85, 183.44 33.12, 185.48 30.91 M-0.23 33.8 C-0.23 33.8, -0.23 33.8, -0.23 33.8 M-0.23 33.8 C-0.23 33.8, -0.23 33.8, -0.23 33.8 M4.58 33.27 C3.3 32.08, 2.99 32.32, -0.25 28.73 M5.98 34.03 C5.2 31.87, 2.13 31.79, 0.49 28.74 M13.28 32.68 C6.03 28.46, 4.51 26.04, -1.73 23.46 M11.66 34.34 C7.87 30.35, 2.31 24.25, -1.75 22.57 M19.54 36.81 C13.83 31.09, 6.58 24.89, 2.56 14.28 M16.6 34.48 C14.38 30.64, 10.66 26.2, 0.39 19.75 M27.86 36.73 C15.55 31.47, 14.59 24.25, -2.4 14.77 M24.16 33.24 C19.82 30.6, 11.93 24.06, -1.98 11.23 M27.58 32.58 C19.6 29.97, 18.01 17.34, -1.85 6.86 M28.26 33.57 C22.59 30.05, 17.65 22.88, -1.45 6.12 M36.14 34.77 C24.74 18.47, 10 13.38, -4.32 2.94 M37.86 35.91 C25.35 24.79, 12.66 12.32, -0.71 3.01 M46.2 30.95 C33.16 25.58, 16.99 8.98, -2.1 0.25 M41.32 33.75 C26.79 22.1, 15.59 8.47, 0.71 -3.44 M52.15 31.61 C36.98 24.58, 25.74 16.13, 7.78 -3.97 M50.58 35.65 C34.53 20.87, 17.55 6.57, 6.91 -3.03 M52.62 35.91 C43.16 23.09, 22.12 12.06, 16.92 1.33 M53.31 35.4 C45.67 22.8, 31.59 15.05, 12.82 -3.72 M61.45 30.74 C48.8 20.83, 34.44 11.35, 20.23 1.27 M61.46 35.52 C44.35 19.08, 32.81 8.05, 20.34 -3.09 M65.97 31.78 C56.34 22.01, 43.4 15.39, 22.32 -1.74 M67.23 32.66 C49.69 20.1, 34.26 5.22, 26.42 -0.74 M69.96 34.66 C63.25 30.17, 51.61 15.03, 35.76 -3.06 M71.59 33.1 C58.7 20.18, 44.16 7.86, 30.98 -0.9 M80.22 36.62 C70.76 28.33, 62.35 19.47, 36.14 -4.58 M80.5 34.85 C68.16 23.26, 53.32 12.3, 37.51 -0.9 M84.98 34.29 C72.84 25.52, 57.05 11.72, 44.47 -1.05 M84.99 33.77 C71.75 22.78, 56.07 10.62, 45.2 -1.09 M88.98 30.83 C76.82 20.41, 62.14 13.74, 49.8 1.62 M89.76 35.08 C74.04 19.73, 58.68 8.78, 49.07 -2.72 M95.68 36.91 C88.62 26.9, 79.1 18.67, 52.1 1.59 M97.11 34.73 C83.16 21.54, 71.97 11, 56.56 -0.47 M102.26 37.87 C89.77 20.49, 76.81 8.79, 60.61 2 M103.54 34.94 C96.75 27.23, 88.52 20.78, 63.47 -0.98 M110.11 31.48 C100.44 18.55, 81.92 10.39, 72.77 2.19 M107.86 34.3 C97.14 25.9, 86.82 12.82, 70.54 -3.39 M119.4 33.6 C99.24 19.67, 84.96 10.51, 76.74 -4.6 M115.35 33.86 C103.89 23.32, 88.85 9.24, 75.57 -1.25 M123.95 37.38 C112.82 21.05, 98.14 16.19, 77.94 -1.51 M122.32 32.64 C113.3 27.52, 100.62 16.29, 81.58 -0.38 M125.63 30.22 C113.46 23.92, 108.59 16.84, 85.99 -4.93 M128.1 33.04 C113.92 21.8, 99.6 8.93, 85.39 -3.35 M137.25 32.98 C117.56 26.21, 105.16 12.99, 88.99 0.55 M135.52 32.36 C118.77 22, 107.61 8.77, 93.54 -0.14 M137.09 33.65 C121.76 23.03, 104.58 4.65, 96.53 -2.74 M139.16 32.87 C125.38 19.85, 110.78 7.23, 98.88 -0.57 M143.42 33.09 C131.86 20.21, 120.2 8.15, 102.16 -3.82 M145.41 35.93 C132.47 21.39, 116.93 7.39, 104.72 -0.25 M153.49 36.19 C144.8 25.68, 126.85 15.57, 109.91 -5.35 M153.1 33.52 C138.55 20.02, 119.97 9.66, 112.94 -2.41 M157.77 36.84 C147.39 24.79, 131.86 10.39, 113.3 -0.45 M157.39 33.59 C145 26.06, 135.11 15.95, 116.62 -2.46 M166.95 33.15 C153.96 22.07, 141.39 14.59, 125.56 -3.75 M166.4 35.63 C155.34 27.32, 145.41 19.11, 123.91 -2.55 M174.46 33.09 C151.51 16.94, 138.29 6.34, 126.65 -4.15 M169.3 32.73 C161.2 25.3, 153.23 18.93, 130.66 -0.07 M174.96 36.27 C163.55 21.06, 151.56 16.89, 137.76 0.8 M176.48 33.71 C165.34 24.02, 155.27 12.01, 136.55 -1.53 M183.31 33.07 C174.01 21.88, 161.34 17.91, 143.82 -5.31 M184.15 34.58 C171.69 23.69, 158.25 9.74, 141.21 -0.51 M190.61 35.67 C178.01 18.99, 160.34 11.97, 144.46 -2.61 M187.96 34.05 C176.21 24.11, 166.91 12.36, 148.84 -2.08 M185.43 23.18 C173.59 14.2, 168.2 4.38, 152.3 2.03 M185.86 26.94 C174.31 17.88, 166.22 5.59, 152.08 -1.46 M188.6 18.57 C176.46 13.41, 172.53 7.73, 163.95 -1.82 M186.58 21.53 C181.1 14.51, 174.37 10.24, 160.66 -0.46 M182.4 15.32 C182.77 12.47, 177.02 6.34, 162.46 1.54 M184.36 14.58 C178.79 7.67, 170.96 2.87, 165.5 -1.42 M184.7 13.53 C181.91 7.16, 177.88 1.5, 175.71 -4.18 M186.66 11.87 C183.69 7.44, 178.47 1.56, 170.93 -1.1 M187.28 4.61 C183.26 4.78, 179.47 3.49, 176.96 -3.67 M186.87 4.78 C184.34 3.73, 181 1.31, 178.55 -2.67" stroke="#bf616a" stroke-width="0.5" fill="none"></path><path d="M-3.67 0.62 C60.09 -5.37, 121.3 -5.68, 187.67 3.48 M-0.96 0.09 C47.39 -1.97, 94.02 -1.26, 184.26 0.41 M183.67 1.39 C188.82 8.82, 187.59 19.2, 188.38 32.16 M185.98 0.21 C186.42 15.05, 185.69 24.52, 184.85 34.72 M185.49 37.21 C109.12 32.14, 42.79 31.45, -3.69 36.14 M185.03 34.36 C131.59 36.48, 82.22 34.93, -0.68 33.64 M0.85 36.08 C-2.82 30.26, 0.61 16.04, 1.54 -3.99 M-0.95 33.22 C1.69 19.53, -1.24 8.88, 1.95 -1.36" stroke="#fff" stroke-width="1" fill="none"></path></g><g transform="translate(147.47368421052624 171.9561403508772) rotate(0 83.5 12.5)"><text x="0" y="18" font-family="Virgil, Segoe UI Emoji" font-size="20px" fill="#fff" text-anchor="start" style="white-space: pre;" direction="ltr">Todo Input Field</text></g><g stroke-linecap="round"><g transform="translate(365.7321428571427 118.60380523517455) rotate(0 50.43601715750992 0.8311547659092753)"><path d="M0.3 -2.67 C16.49 -1.75, 81.67 3.71, 98.59 4.34 M-2.98 2.05 C13.95 2.18, 86.59 -0.47, 103.86 -0.35" stroke="#fff" stroke-width="1" fill="none"></path></g><g transform="translate(365.7321428571427 118.60380523517455) rotate(0 50.43601715750992 0.8311547659092753)"><path d="M72.03 7.43 C86.66 8.15, 91.88 3.51, 103.8 2.32 M75.91 11.08 C84.69 7.41, 90.85 4.89, 105.46 -0.24" stroke="#fff" stroke-width="1" fill="none"></path></g><g transform="translate(365.7321428571427 118.60380523517455) rotate(0 50.43601715750992 0.8311547659092753)"><path d="M71.67 -13.09 C86.25 -5.14, 91.59 -2.55, 103.8 2.32 M75.54 -9.44 C84.62 -7.58, 90.88 -4.57, 105.46 -0.24" stroke="#fff" stroke-width="1" fill="none"></path></g></g><g transform="translate(556.9821428571427 278.9833959899749) rotate(0 138 25)"><text x="276" y="18" font-family="Virgil, Segoe UI Emoji" font-size="20px" fill="#bf616a" text-anchor="end" style="white-space: pre;" direction="ltr">valueAtom, isSelectedAtom, </text><text x="276" y="43" font-family="Virgil, Segoe UI Emoji" font-size="20px" fill="#bf616a" text-anchor="end" style="white-space: pre;" direction="ltr">isFocusedAtom</text></g><g stroke-linecap="round"><g transform="translate(838.3455831076819 290.4833959899749) rotate(0 -7.81570447372286 -45.106102845221784)"><path d="M1.63 -0.74 C5.63 -8.79, 28.65 -32.56, 22.23 -46.52 C15.82 -60.49, -26.99 -78.38, -36.87 -84.53 M-0.93 -3.61 C3.09 -12.58, 27.71 -36.02, 21.38 -50.33 C15.04 -64.64, -29.25 -83.15, -38.95 -89.47" stroke="#bf616a" stroke-width="1" fill="none"></path></g><g transform="translate(838.3455831076819 290.4833959899749) rotate(0 -7.81570447372286 -45.106102845221784)"><path d="M-10.3 -81.7 C-13.14 -86.69, -21.78 -87.96, -35.83 -92.35 M-10.46 -83.72 C-16.24 -85.65, -23.57 -85.91, -39.49 -88.25" stroke="#bf616a" stroke-width="1" fill="none"></path></g><g transform="translate(838.3455831076819 290.4833959899749) rotate(0 -7.81570447372286 -45.106102845221784)"><path d="M-19.91 -63.57 C-20.71 -72.96, -27.08 -78.51, -35.83 -92.35 M-20.07 -65.59 C-23.34 -72.55, -28.05 -77.76, -39.49 -88.25" stroke="#bf616a" stroke-width="1" fill="none"></path></g></g><g transform="translate(463.2321428571427 339.6083959899749) rotate(0 145 12.5)"><text x="290" y="18" font-family="Virgil, Segoe UI Emoji" font-size="20px" fill="#a3be8c" text-anchor="end" style="white-space: pre;" direction="ltr">itemsAtom, selectedItemAtom</text></g><g stroke-linecap="round"><g transform="translate(479.4821428571427 321.7333959899749) rotate(0 -3.5020119115626756 -81.51787663325669)"><path d="M0.77 0.63 C-3.18 -16.69, -26 -78.43, -22.95 -105.82 C-19.9 -133.2, 11.98 -154.02, 19.06 -163.67 M-2.25 -1.49 C-6.74 -19.39, -29.22 -83.01, -25.77 -109.57 C-22.32 -136.14, 11.99 -152.22, 18.44 -160.86" stroke="#a3be8c" stroke-width="1" fill="none"></path></g><g transform="translate(479.4821428571427 321.7333959899749) rotate(0 -3.5020119115626756 -81.51787663325669)"><path d="M4.36 -136.4 C12.02 -140.34, 12.85 -148.13, 17.63 -163.81 M1.86 -136.18 C5.25 -140.58, 11.07 -147.51, 17.28 -161.23" stroke="#a3be8c" stroke-width="1" fill="none"></path></g><g transform="translate(479.4821428571427 321.7333959899749) rotate(0 -3.5020119115626756 -81.51787663325669)"><path d="M-8.83 -152.11 C2.93 -150.98, 8.1 -153.62, 17.63 -163.81 M-11.34 -151.9 C-5.11 -152.84, 3.59 -156.34, 17.28 -161.23" stroke="#a3be8c" stroke-width="1" fill="none"></path></g></g></svg>
